<svg version="1.1" xmlns="http://www.w3.org/2000/svg" style="display: block;" viewBox="5.1065897941589355 5.729547500610352 1675.0531005859375 1669.56982421875" width="422" height="420" preserveAspectRatio="none">
<defs>
	<linearGradient id="Gradient1" gradientUnits="userSpaceOnUse" x1="315.033" y1="1681.95" x2="309.889" y2="1550.05">
		<stop class="stop0" offset="0" stop-opacity="0" stop-color="rgb(0,156,4)"/>
		<stop class="stop1" offset="1" stop-opacity="0.00784314" stop-color="rgb(87,190,61)"/>
	</linearGradient>
	<linearGradient id="Gradient2" gradientUnits="userSpaceOnUse" x1="1145.57" y1="1401.62" x2="1203.09" y2="1495.27">
		<stop class="stop0" offset="0" stop-opacity="1" stop-color="rgb(115,195,147)"/>
		<stop class="stop1" offset="1" stop-opacity="1" stop-color="rgb(207,236,217)"/>
	</linearGradient>
	<linearGradient id="Gradient3" gradientUnits="userSpaceOnUse" x1="874.959" y1="509.491" x2="945.952" y2="509.504">
		<stop class="stop0" offset="0" stop-opacity="1" stop-color="rgb(216,9,9)"/>
		<stop class="stop1" offset="1" stop-opacity="1" stop-color="rgb(255,96,82)"/>
	</linearGradient>
	<linearGradient id="Gradient4" gradientUnits="userSpaceOnUse" x1="1169.79" y1="389.907" x2="1234.18" y2="261.879">
		<stop class="stop0" offset="0" stop-opacity="1" stop-color="rgb(253,111,91)"/>
		<stop class="stop1" offset="1" stop-opacity="1" stop-color="rgb(252,139,93)"/>
	</linearGradient>
	<linearGradient id="Gradient5" gradientUnits="userSpaceOnUse" x1="1254.76" y1="254.102" x2="1055.41" y2="689.87">
		<stop class="stop0" offset="0" stop-opacity="1" stop-color="rgb(255,87,23)"/>
		<stop class="stop1" offset="1" stop-opacity="1" stop-color="rgb(226,26,36)"/>
	</linearGradient>
	<linearGradient id="Gradient6" gradientUnits="userSpaceOnUse" x1="647.624" y1="1112.74" x2="679.145" y2="934.226">
		<stop class="stop0" offset="0" stop-opacity="1" stop-color="rgb(35,168,42)"/>
		<stop class="stop1" offset="1" stop-opacity="1" stop-color="rgb(110,206,43)"/>
	</linearGradient>
	<linearGradient id="Gradient7" gradientUnits="userSpaceOnUse" x1="867.586" y1="1296.9" x2="847.17" y2="721.42">
		<stop class="stop0" offset="0" stop-opacity="1" stop-color="rgb(122,218,69)"/>
		<stop class="stop1" offset="1" stop-opacity="1" stop-color="rgb(197,244,61)"/>
	</linearGradient>
	<linearGradient id="Gradient8" gradientUnits="userSpaceOnUse" x1="731.758" y1="1680.27" x2="713.504" y2="1265.15">
		<stop class="stop0" offset="0" stop-opacity="1" stop-color="rgb(49,182,64)"/>
		<stop class="stop1" offset="1" stop-opacity="1" stop-color="rgb(118,217,67)"/>
	</linearGradient>
</defs>
<path transform="translate(0,0)" fill="rgb(254,255,254)" d="M 97.2317 1541.57 C 88.9268 1527.38 78.5314 1518.35 69.7735 1505.57 C 43.6169 1467.06 25.2208 1423.82 15.6151 1378.27 C 5.82567 1332.43 5.51764 1283.08 5.40376 1236.4 L 5.39678 1137.58 L 5.54722 850.215 L 5.10659 538.697 L 5.44159 435.934 C 5.60906 414.003 5.69218 392.676 6.73124 370.844 C 12.2177 255.567 54.4922 159.029 146.001 86.4992 C 234.067 16.6983 312.025 9.15039 420.692 7.54559 C 452.284 6.99841 483.88 6.70123 515.477 6.65408 L 767.974 6.16524 C 885.052 5.58048 1002.13 5.58434 1119.21 6.17683 L 1235.21 6.27019 C 1269.14 6.35119 1303.3 6.22832 1337.12 9.23824 C 1436.45 17.6087 1528.26 65.5139 1591.93 142.201 C 1632.67 191.569 1660.03 250.572 1671.41 313.553 C 1683.4 380.504 1679.78 487.269 1679.19 557.273 L 1678.29 847.555 L 1678.15 1149.37 L 1678.15 1254.74 C 1678.11 1283.12 1678.21 1317.34 1675.62 1345.61 C 1657.17 1455.09 1620.55 1534.61 1527.77 1599.34 C 1431.39 1666.56 1350.38 1672.03 1237.08 1671.43 L 1190.2 1671.28 C 1185.6 1671.29 1169.13 1671.66 1165.31 1671.15 C 1132.38 1673.12 1094.64 1671.05 1060.97 1672.08 C 1046.42 1671.36 1031.97 1671.64 1017.42 1671.79 L 763.255 1671.08 C 707.475 1670.97 647.951 1669.79 592.651 1671.16 C 576.061 1670.5 556.08 1670.98 539.285 1670.96 L 428.699 1670.89 C 401.704 1670.87 368.196 1671.33 341.56 1668.41 C 248.286 1658.21 174.017 1621.22 107.25 1556.24 C 102.394 1550.99 99.511 1548.28 97.2317 1541.57 z"/>
<path transform="translate(0,0)" fill="url(#Gradient8)" d="M 1113.33 1252.41 L 1114.65 1252.78 C 1113.16 1254.79 1104.47 1259.29 1101.55 1258.89 L 1101.73 1260.87 C 1104.24 1261.31 1103.4 1260.88 1105.39 1262.28 C 1103.55 1264.23 1103.51 1263.83 1102.67 1266.18 C 1107.24 1268.03 1112.14 1268.36 1116.9 1270.32 C 1121.59 1272.25 1121.25 1274.72 1125.62 1275.95 C 1132.1 1277.78 1137.24 1280.15 1143.96 1281.92 C 1150.09 1283.54 1153.73 1282.4 1158.09 1283.33 L 1158.33 1284.91 C 1181.99 1283.94 1206.92 1287.1 1231 1283.25 C 1257.21 1279.07 1281.93 1274.71 1307.43 1267.43 C 1319.41 1264.01 1337.58 1265.68 1346.48 1254.54 C 1351.69 1248.29 1356.41 1232.86 1362.49 1229.66 C 1343.48 1282.86 1267.77 1327.66 1219.35 1350.57 C 1198.3 1360.35 1177.02 1369.66 1155.54 1378.46 C 1074.55 1410.95 901.588 1468.15 935.82 1583.99 C 937.269 1588.9 939.807 1598.85 943.126 1602.31 C 946.587 1610.04 958.184 1624.29 964.792 1629.98 C 972.63 1641.25 1004.11 1670.1 1017.42 1671.79 L 763.255 1671.08 C 707.475 1670.97 647.951 1669.79 592.651 1671.16 C 576.061 1670.5 556.08 1670.98 539.285 1670.96 L 428.699 1670.89 C 401.704 1670.87 368.196 1671.33 341.56 1668.41 C 248.286 1658.21 174.017 1621.22 107.25 1556.24 C 102.394 1550.99 99.511 1548.28 97.2317 1541.57 C 101.542 1532.72 105.295 1515.91 108.763 1505.99 C 155.839 1371.2 295.705 1291.45 424.923 1254.62 L 425.154 1256.26 C 415.888 1259.73 362.138 1276.43 356.952 1280.63 C 358.586 1282.55 358.696 1282.33 359.645 1284.56 L 357.641 1287.08 C 359.155 1288.08 401.908 1285.16 407.148 1284.77 C 432.474 1282.85 453.184 1289.9 477.059 1293.71 C 489.441 1295.68 511.601 1296.3 525.41 1297.65 C 549.593 1297.24 572.635 1288 597.706 1288.45 C 615.108 1288.77 630.837 1290.92 648.044 1293.03 C 666.496 1295.29 684.52 1295.84 703.182 1296.04 L 799.912 1296.99 C 806.198 1297.06 813.669 1295.19 819.214 1296.25 C 820.733 1296.55 820.553 1296.59 822.191 1296.67 L 821.997 1295.46 C 822.512 1296.6 822.48 1296.13 822.47 1296.79 C 831.588 1308.75 843.496 1306.87 856.665 1310.87 C 871.516 1315.37 883.913 1321.68 899.758 1322.1 C 908.242 1322.37 916.725 1321.56 925.007 1319.7 C 942.529 1315.66 971.844 1304.38 989.556 1298.43 C 1017.27 1289.13 1045.74 1278.63 1073.33 1268.8 C 1085.79 1264.37 1100.01 1256.8 1112.53 1252.66 L 1113.33 1252.41 z"/>
<path transform="translate(0,0)" fill="rgb(210,242,154)" d="M 622.585 1369.39 C 625.822 1369.05 629.074 1368.86 632.33 1368.83 C 648.842 1368.62 712.421 1366.7 711.78 1392.69 C 710.702 1404.51 696.276 1411.17 688.136 1417.67 C 655.913 1443.39 624.075 1473.74 606.534 1511.66 C 602.608 1520.14 596.511 1536.25 589.102 1541.94 C 571.351 1555.56 541.252 1550.8 520.248 1549.15 C 499.708 1548.06 478.722 1547.3 458.215 1545.86 C 409.913 1542.47 423.062 1514.2 443.899 1489.04 C 458.857 1471.11 475.267 1454.44 492.963 1439.21 C 521.649 1414.78 584.992 1372.94 622.585 1369.39 z"/>
<path transform="translate(0,0)" fill="url(#Gradient7)" d="M 873.253 717.833 C 873.647 748.257 867.489 761.625 904.149 765.918 C 917.063 767.43 928.139 766.85 940.952 766.336 C 947.298 766.271 965.485 764.279 970.508 760.218 C 978.269 753.942 976.507 739.958 977.401 731.163 L 977.498 730.263 C 991.394 733.174 1009.76 737.322 1018.3 749.811 C 1023.82 757.875 1023.07 764.381 1022.87 773.553 C 1023.39 795.217 1011.32 805.655 992.185 812.395 C 949.832 827.314 902.034 824.532 857.749 828.451 L 856.182 828.809 C 849.069 830.386 837.778 831.296 830.072 832.578 C 796.092 838.234 752.584 846.677 728.898 873.712 C 749.867 896.959 928.822 918.216 971.983 925.646 C 1102.3 948.082 1229.71 985.964 1327.86 1079.72 C 1351.62 1102.41 1378.21 1148.91 1378.11 1182.28 L 1375.09 1180.18 C 1373.92 1182.66 1371.82 1198.59 1371.15 1202.48 C 1369.56 1211.9 1366.65 1221.06 1362.49 1229.66 C 1356.41 1232.86 1351.69 1248.29 1346.48 1254.54 C 1337.58 1265.68 1319.41 1264.01 1307.43 1267.43 C 1281.93 1274.71 1257.21 1279.07 1231 1283.25 C 1206.92 1287.1 1181.99 1283.94 1158.33 1284.91 L 1158.09 1283.33 C 1153.73 1282.4 1150.09 1283.54 1143.96 1281.92 C 1137.24 1280.15 1132.1 1277.78 1125.62 1275.95 C 1121.25 1274.72 1121.59 1272.25 1116.9 1270.32 C 1112.14 1268.36 1107.24 1268.03 1102.67 1266.18 C 1103.51 1263.83 1103.55 1264.23 1105.39 1262.28 C 1103.4 1260.88 1104.24 1261.31 1101.73 1260.87 L 1101.55 1258.89 C 1104.47 1259.29 1113.16 1254.79 1114.65 1252.78 L 1113.33 1252.41 L 1112.53 1252.66 C 1100.01 1256.8 1085.79 1264.37 1073.33 1268.8 C 1045.74 1278.63 1017.27 1289.13 989.556 1298.43 C 971.844 1304.38 942.529 1315.66 925.007 1319.7 C 916.725 1321.56 908.242 1322.37 899.758 1322.1 C 883.913 1321.68 871.516 1315.37 856.665 1310.87 C 843.496 1306.87 831.588 1308.75 822.47 1296.79 C 822.48 1296.13 822.512 1296.6 821.997 1295.46 L 822.191 1296.67 C 820.553 1296.59 820.733 1296.55 819.214 1296.25 C 813.669 1295.19 806.198 1297.06 799.912 1296.99 L 703.182 1296.04 C 684.52 1295.84 666.496 1295.29 648.044 1293.03 C 630.837 1290.92 615.108 1288.77 597.706 1288.45 C 572.635 1288 549.593 1297.24 525.41 1297.65 C 511.601 1296.3 489.441 1295.68 477.059 1293.71 C 453.184 1289.9 432.474 1282.85 407.148 1284.77 C 401.908 1285.16 359.155 1288.08 357.641 1287.08 L 359.645 1284.56 C 358.696 1282.33 358.586 1282.55 356.952 1280.63 C 362.138 1276.43 415.888 1259.73 425.154 1256.26 L 424.923 1254.62 C 441.098 1247.11 482.709 1238.65 500.901 1234.17 C 557.221 1220.63 613.85 1208.41 670.741 1197.52 C 716.915 1188.27 761.152 1179.99 806.762 1167.57 C 814.939 1166.48 846.669 1157.12 852.139 1151.69 C 823.965 1123.95 797.055 1116.8 760.926 1102.86 C 676.805 1070.4 576.587 1051.84 502.548 998.796 C 474.096 978.412 459.865 957.953 455.048 923.81 C 454.773 911.658 455.216 899.501 456.375 887.401 C 458.763 864.502 465.915 848.033 482.276 831.655 C 547.785 766.078 639.663 758.426 724.488 741.393 L 777.175 730.754 C 787.797 728.582 807.55 724.226 817.775 724.064 C 834.616 720.487 855.227 721.248 873.253 717.833 z"/>
<path transform="translate(0,0)" fill="url(#Gradient6)" d="M 456.375 887.401 L 457.756 887.956 C 462.307 917.403 476.367 934.311 500.063 951.654 C 535.629 977.685 580.355 993.235 621.645 1007.71 C 667.094 1023.64 868.604 1074.39 876.013 1121.88 C 877.081 1128.73 873.837 1134.5 869.75 1139.7 C 866.483 1143.87 858.801 1151.58 853.295 1151.78 C 852.909 1151.79 852.524 1151.72 852.139 1151.69 C 823.965 1123.95 797.055 1116.8 760.926 1102.86 C 676.805 1070.4 576.587 1051.84 502.548 998.796 C 474.096 978.412 459.865 957.953 455.048 923.81 C 454.773 911.658 455.216 899.501 456.375 887.401 z"/>
<path transform="translate(0,0)" fill="rgb(210,242,154)" d="M 822.47 1296.79 C 825.343 1290.31 828.815 1285.78 835.862 1283.55 C 887.593 1267.2 939.366 1252.69 990.971 1235.64 C 1003.05 1231.66 1025.57 1222.17 1037.94 1220.77 C 1062.45 1218.01 1102.87 1220.2 1125.68 1231 C 1128.62 1232.7 1129.21 1235.23 1129.67 1237.97 C 1127.61 1245.18 1119.85 1248.65 1113.33 1252.41 L 1112.53 1252.66 C 1100.01 1256.8 1085.79 1264.37 1073.33 1268.8 C 1045.74 1278.63 1017.27 1289.13 989.556 1298.43 C 971.844 1304.38 942.529 1315.66 925.007 1319.7 C 916.725 1321.56 908.242 1322.37 899.758 1322.1 C 883.913 1321.68 871.516 1315.37 856.665 1310.87 C 843.496 1306.87 831.588 1308.75 822.47 1296.79 z"/>
<path transform="translate(0,0)" fill="rgb(31,159,40)" d="M 950.819 786.384 C 963.892 784.776 985.04 782.543 996.919 777.894 C 1003.99 775.124 1013.05 768.514 1021.25 765.661 L 1022.87 773.553 C 1023.39 795.217 1011.32 805.655 992.185 812.395 C 949.832 827.314 902.034 824.532 857.749 828.451 L 856.182 828.809 C 849.069 830.386 837.778 831.296 830.072 832.578 C 796.092 838.234 752.584 846.677 728.898 873.712 C 721.663 873.381 712.588 858.738 711.47 852.051 C 715.662 849.302 722.469 835.869 728.029 831.916 C 781.459 793.931 851.542 792.658 914.547 788.721 C 926.898 787.95 939.495 786.266 950.819 786.384 z"/>
<path transform="translate(0,0)" fill="rgb(2,132,29)" d="M 950.819 786.384 C 963.892 784.776 985.04 782.543 996.919 777.894 C 1003.99 775.124 1013.05 768.514 1021.25 765.661 L 1022.87 773.553 C 1023.39 795.217 1011.32 805.655 992.185 812.395 C 949.832 827.314 902.034 824.532 857.749 828.451 L 855.825 827.64 L 855.971 826.782 C 861.51 827.376 869.644 824.224 876.991 823.863 C 903.098 822.581 931.129 823.633 956.492 817.83 C 959.274 817.194 963.795 818.804 965.839 818.13 C 972.158 816.047 979.085 811.867 985.588 810.66 C 989.603 809.915 991.757 810.501 994.38 807.488 C 994.905 800.607 1007.11 779.611 1006.46 775.737 C 995.407 780.534 962.722 789.583 950.819 786.384 z"/>
<path transform="translate(0,0)" fill="rgb(90,195,66)" d="M 873.253 717.833 C 873.647 748.257 867.489 761.625 904.149 765.918 C 917.063 767.43 928.139 766.85 940.952 766.336 C 947.298 766.271 965.485 764.279 970.508 760.218 C 978.269 753.942 976.507 739.958 977.401 731.163 L 977.498 730.263 C 991.394 733.174 1009.76 737.322 1018.3 749.811 C 1023.82 757.875 1023.07 764.381 1022.87 773.553 L 1021.25 765.661 C 1013.05 768.514 1003.99 775.124 996.919 777.894 C 985.04 782.543 963.892 784.776 950.819 786.384 C 939.495 786.266 926.898 787.95 914.547 788.721 C 851.542 792.658 781.459 793.931 728.029 831.916 C 722.469 835.869 715.662 849.302 711.47 852.051 C 715.632 836.732 731.619 825.841 744.744 818.594 C 793.128 791.879 848.972 791.164 902.6 786.899 C 909.178 786.376 939.929 786.871 943.418 783.529 C 937.483 780.385 917.649 779.187 910.555 777.768 C 898.809 775.419 858.716 766.723 850.567 761.213 C 845.927 752.202 865.69 743.676 871.829 739.028 C 871.771 732.939 871.664 726.851 871.507 720.764 C 861.96 721.427 823.304 726.063 817.775 724.064 C 834.616 720.487 855.227 721.248 873.253 717.833 z"/>
<path transform="translate(0,0)" fill="rgb(210,242,154)" d="M 1025.13 1026.41 C 1061.88 1023.2 1105.45 1049.5 1136.36 1068.2 C 1150.5 1078.1 1174.06 1094.45 1178.94 1111.5 C 1182.41 1123.58 1162.36 1126.07 1154.52 1126.83 C 1072.44 1128.3 1112.23 1126.42 1056.5 1076.7 C 1045.19 1066.61 1017 1054.58 1003.73 1045.51 C 999.979 1042.95 998.359 1041.35 997.73 1037.21 C 1000.88 1027.81 1016.76 1026.99 1025.13 1026.41 z"/>
<path transform="translate(0,0)" fill="rgb(210,242,154)" d="M 709.715 936.347 C 733.498 933.024 803.287 955.002 830.288 960.425 C 843.989 963.176 862.638 967.82 876.723 971.065 C 882.791 972.463 891.52 975.009 894.802 980.722 C 894.083 989.734 878.38 992.269 871.085 993.535 C 850.61 996.242 838.423 991.273 818.889 986.42 C 798.939 981.659 779.055 976.625 759.242 971.321 C 746.557 967.955 690.53 955.775 685.238 948.411 C 684.958 938.31 702.113 937.461 709.715 936.347 z"/>
<path transform="translate(0,0)" fill="rgb(210,242,154)" d="M 637.238 802.332 C 643.068 802.654 651.312 803.967 654.675 809.296 C 654.287 814.889 646.86 819.233 642.236 823.661 C 628.333 836.977 630.241 848.373 622.327 863.409 C 619.576 868.637 612.135 869.247 606.507 870.116 C 561.844 864.548 600.958 806.475 637.238 802.332 z"/>
<path transform="translate(0,0)" fill="rgb(210,242,154)" d="M 807.726 738.417 C 814.77 737.432 832.163 735.942 833.577 745.408 C 829.933 749.463 822.949 749.515 817.537 749.971 C 789.891 752.304 764.44 762.413 737.66 767.766 C 730.032 768.857 718.23 769.799 712.154 763.933 L 712.313 761.831 C 722.438 750.654 790.687 740.096 807.726 738.417 z"/>
<path transform="translate(0,0)" fill="url(#Gradient5)" d="M 976.869 283.116 L 978.075 285.948 C 981.052 286.459 997.116 278.978 1001.87 277.27 C 1026.61 268.292 1052.01 261.244 1077.84 256.187 C 1142.43 243.264 1302.98 247.238 1348.41 306.649 C 1354.52 314.637 1361.08 330.302 1361.99 340.654 C 1363.16 354.144 1362.8 369.463 1362.77 383.185 L 1362.52 457.156 L 1362.6 545.208 C 1362.31 589.347 1364.68 649.878 1299.47 637.147 C 1285.96 634.51 1273.56 629.062 1260.47 624.962 C 1173.74 597.789 1076.97 605.566 996.299 647.717 C 990.116 650.948 982.769 654.685 976.978 658.452 C 972.031 653.146 973.761 461.784 973.455 433.143 C 972.974 388.209 968.964 332.776 973.69 287.59 C 973.754 286.979 976.139 283.802 976.869 283.116 z"/>
<path transform="translate(0,0)" fill="rgb(254,255,254)" d="M 1269.61 334.243 C 1270.2 334.199 1270.79 334.167 1271.37 334.147 C 1291.04 333.515 1308.49 347.767 1308.47 368.057 C 1308.46 374.167 1306.6 380.13 1303.14 385.163 C 1294.62 397.481 1265.77 423.977 1253.48 435.948 L 1181.63 506.933 C 1174.56 513.855 1167.33 520.415 1160.19 527.211 C 1126.18 559.56 1097.26 520.482 1073.05 495.5 C 1060.46 481.877 1038.2 466.82 1036.09 447.838 C 1033.98 428.79 1049.02 411.989 1067.82 410.806 C 1092.86 409.23 1115.83 441.732 1133.57 457.527 L 1206.26 386.383 C 1222.15 370.61 1249.39 339.379 1269.61 334.243 z"/>
<path transform="translate(0,0)" fill="url(#Gradient4)" d="M 1153.63 267.42 C 1186.48 266.216 1219.35 269.553 1251.29 277.335 C 1282.79 284.732 1344.11 305.359 1341.75 345.457 C 1339.82 378.102 1345.41 444.332 1338.02 473.578 C 1336.43 469.239 1337.01 453.749 1336.96 448.506 C 1336.67 419.013 1337.71 389.152 1335 359.761 C 1333.74 346.032 1327.33 334.418 1318.15 324.249 C 1311.81 318.327 1304.18 312.673 1296.17 308.899 C 1223.75 274.756 1134.25 273.236 1056.85 288.486 C 1036.66 292.464 1017.64 299.832 998.588 305.952 C 1029.18 280.626 1114.03 269.763 1153.63 267.42 z"/>
<path transform="translate(0,0)" fill="url(#Gradient3)" d="M 873.253 717.833 C 872.231 695.251 873.277 662.915 873.283 639.469 L 873.347 479.971 L 873.458 365.189 C 873.357 342.72 872.385 318.894 873.643 296.495 C 875.849 257.225 904.557 250.307 938.158 253.842 C 948.889 253.846 959.648 256.487 966.952 264.995 C 971.666 268.857 975.978 277.225 976.869 283.116 C 976.139 283.802 973.754 286.979 973.69 287.59 C 968.964 332.776 972.974 388.209 973.455 433.143 C 973.761 461.784 972.031 653.146 976.978 658.452 C 978.994 671.068 976.957 713.775 977.498 730.263 L 977.401 731.163 C 976.507 739.958 978.269 753.942 970.508 760.218 C 965.485 764.279 947.298 766.271 940.952 766.336 C 928.139 766.85 917.063 767.43 904.149 765.918 C 867.489 761.625 873.647 748.257 873.253 717.833 z"/>
<path transform="translate(0,0)" fill="rgb(250,101,90)" d="M 926.247 292.393 C 885.793 273.92 908.748 255.586 941.979 261.589 C 944.345 262.368 946.937 263.491 949.296 263.453 C 954.092 264.677 957.84 266.585 962.69 264.759 C 964.147 265.28 964.789 265.532 966.242 266.18 L 966.952 264.995 C 971.666 268.857 975.978 277.225 976.869 283.116 C 976.139 283.802 973.754 286.979 973.69 287.59 C 968.964 332.776 972.974 388.209 973.455 433.143 C 973.761 461.784 972.031 653.146 976.978 658.452 C 978.994 671.068 976.957 713.775 977.498 730.263 L 977.401 731.163 C 976.507 739.958 978.269 753.942 970.508 760.218 C 965.485 764.279 947.298 766.271 940.952 766.336 C 940.69 766.77 943.275 698.455 943.408 691.512 C 944.463 634.247 944.829 576.971 944.505 519.697 C 944.258 466.902 941.453 413.214 941.54 360.27 C 941.55 354.022 941.142 346.667 940 340.565 C 940.122 348.597 939.837 354.694 939.313 362.67 C 936.361 348.236 941.442 301.332 938.369 296.468 C 934.195 294.804 930.679 293.172 926.247 292.393 z"/>
<path transform="translate(0,0)" fill="rgb(255,214,195)" d="M 941.979 261.589 C 944.345 262.368 946.937 263.491 949.296 263.453 C 981.363 289.576 922.94 291.832 920.585 271.203 C 923.223 260.599 932.983 262.318 941.979 261.589 z"/>
<path transform="translate(0,0)" fill="rgb(255,74,47)" d="M 938.158 253.842 C 948.889 253.846 959.648 256.487 966.952 264.995 L 966.242 266.18 C 964.789 265.532 964.147 265.28 962.69 264.759 C 957.84 266.585 954.092 264.677 949.296 263.453 C 946.937 263.491 944.345 262.368 941.979 261.589 C 908.748 255.586 885.793 273.92 926.247 292.393 C 916.766 296.006 896.31 281.55 898.92 270.757 C 903.771 250.697 938.28 262.422 946.425 256.569 L 928.941 254.696 L 938.158 253.842 z"/>
<path transform="translate(0,0)" fill="rgb(31,159,40)" d="M 1362.49 1229.66 C 1366.65 1221.06 1369.56 1211.9 1371.15 1202.48 C 1371.82 1198.59 1373.92 1182.66 1375.09 1180.18 L 1378.11 1182.28 L 1379.03 1200.74 C 1378.42 1248.02 1383.41 1257.36 1364.55 1302.92 C 1318.14 1383.8 1256.62 1409.47 1176.69 1447.83 C 1114.58 1477.64 954.099 1525.37 943.126 1602.31 C 939.807 1598.85 937.269 1588.9 935.82 1583.99 C 901.588 1468.15 1074.55 1410.95 1155.54 1378.46 C 1177.02 1369.66 1198.3 1360.35 1219.35 1350.57 C 1267.77 1327.66 1343.48 1282.86 1362.49 1229.66 z"/>
<path transform="translate(0,0)" fill="url(#Gradient2)" d="M 1364.55 1302.92 L 1363.39 1309 L 1364.09 1309.19 C 1369.16 1299.08 1373.23 1288.49 1376.22 1277.58 C 1377.85 1271.64 1379.2 1263.25 1381.54 1258.08 L 1382.34 1258.47 C 1383.12 1261.94 1381.85 1264.42 1381.86 1268.32 C 1381.88 1304.75 1349.84 1336.32 1335.44 1367.8 L 1336.16 1367.49 C 1334.99 1372.18 1333.85 1371.9 1332.5 1375.49 L 1332.04 1376.42 C 1328.19 1378.13 1320.59 1385.11 1317.98 1388.43 C 1316.51 1392.17 1311.95 1395.52 1308.09 1396.75 C 1306.57 1400.21 1297.27 1409.54 1293.69 1410.73 L 1292.98 1410.99 C 1289.3 1412.03 1280.61 1420.43 1276.53 1423.32 C 1262.42 1433.3 1247.26 1441.99 1232.97 1451.58 C 1179.61 1487.37 1117.39 1504.28 1066.89 1544.49 C 1054.75 1554.16 1040.26 1561.98 1028.4 1572.23 C 1007.8 1588.92 990.599 1610.04 973.32 1630.19 C 973.697 1632.6 974.151 1634.28 973.983 1636.69 C 969.22 1633.77 968.432 1630 964.792 1629.98 C 958.184 1624.29 946.587 1610.04 943.126 1602.31 C 954.099 1525.37 1114.58 1477.64 1176.69 1447.83 C 1256.62 1409.47 1318.14 1383.8 1364.55 1302.92 z"/>
<path transform="translate(0,0)" fill="rgb(188,229,201)" d="M 1293.69 1410.73 C 1295.28 1407.14 1304.34 1397.4 1308.09 1396.75 C 1306.57 1400.21 1297.27 1409.54 1293.69 1410.73 z"/>
<path transform="translate(0,0)" fill="rgb(188,229,201)" d="M 455.048 923.81 C 459.865 957.953 474.096 978.412 502.548 998.796 C 576.587 1051.84 676.805 1070.4 760.926 1102.86 C 797.055 1116.8 823.965 1123.95 852.139 1151.69 C 846.669 1157.12 814.939 1166.48 806.762 1167.57 C 815.705 1161.32 822.295 1162.73 831.084 1158.13 C 821.721 1140.58 790.552 1133.99 774.059 1124 C 771.017 1122.16 756.803 1120.68 752.502 1118.71 C 746.571 1115.99 740.083 1113.37 733.924 1111.16 L 674.001 1090.21 C 656.87 1084.21 629.732 1076.82 613.988 1070.74 C 583.792 1059.07 514.961 1031.39 492.902 1010.89 L 493.574 1010.11 C 499.704 1009.9 497.663 1009.74 503.411 1012.97 L 504.399 1012.5 C 488.484 996.177 450.519 956.022 453.841 932.582 L 455.048 923.81 z"/>
<path transform="translate(0,0)" fill="rgb(188,229,201)" d="M 964.792 1629.98 C 968.432 1630 969.22 1633.77 973.983 1636.69 C 974.151 1634.28 973.697 1632.6 973.32 1630.19 C 990.599 1610.04 1007.8 1588.92 1028.4 1572.23 C 1040.26 1561.98 1054.75 1554.16 1066.89 1544.49 C 1117.39 1504.28 1179.61 1487.37 1232.97 1451.58 C 1247.26 1441.99 1262.42 1433.3 1276.53 1423.32 C 1280.61 1420.43 1289.3 1412.03 1292.98 1410.99 C 1292.86 1411.19 1292.74 1411.39 1292.62 1411.59 C 1282.85 1426.97 1197.8 1476.23 1177.84 1486.46 C 1154.18 1498.6 1129.78 1507.58 1107.1 1521.81 C 1076.07 1541.28 1036.72 1569.36 1011.89 1596.21 C 1007.86 1600.57 1003.61 1605.12 1000.23 1610.01 C 998.7 1612.24 997.614 1614.81 995.855 1616.87 C 990.103 1623.61 977.966 1631.68 979.949 1642.18 C 981.156 1648.57 1008.97 1667.21 1014.77 1669.53 C 1020.72 1671.9 1051.37 1669.33 1059.98 1669.25 C 1082.02 1669.03 1103.99 1670.14 1126.01 1670.48 C 1138.71 1670.67 1152.81 1669.25 1165.31 1671.15 C 1132.38 1673.12 1094.64 1671.05 1060.97 1672.08 C 1046.42 1671.36 1031.97 1671.64 1017.42 1671.79 C 1004.11 1670.1 972.63 1641.25 964.792 1629.98 z"/>
<path transform="translate(0,0)" fill="rgb(188,229,201)" d="M 1379.03 1200.74 C 1381.45 1214.16 1382.07 1229.23 1382.37 1242.92 C 1382.45 1246.19 1380.2 1251.89 1382.52 1253.95 C 1386.67 1257.61 1383.34 1271.79 1384.89 1273.86 C 1385.78 1270.22 1389.58 1243.46 1389.23 1240.4 L 1389.97 1239.82 C 1394.28 1244.7 1392.78 1262.31 1392.94 1268.07 C 1393.28 1280.75 1384.68 1287.07 1381.8 1293.93 L 1383.37 1295.04 C 1381.89 1308.62 1343.5 1369.02 1332.5 1375.49 C 1333.85 1371.9 1334.99 1372.18 1336.16 1367.49 L 1335.44 1367.8 C 1349.84 1336.32 1381.88 1304.75 1381.86 1268.32 C 1381.85 1264.42 1383.12 1261.94 1382.34 1258.47 L 1381.54 1258.08 C 1379.2 1263.25 1377.85 1271.64 1376.22 1277.58 C 1373.23 1288.49 1369.16 1299.08 1364.09 1309.19 L 1363.39 1309 L 1364.55 1302.92 C 1383.41 1257.36 1378.42 1248.02 1379.03 1200.74 z"/>
<path transform="translate(0,0)" fill="rgb(188,229,201)" d="M 1317.98 1388.43 C 1320.59 1385.11 1328.19 1378.13 1332.04 1376.42 C 1330.65 1380.96 1322.59 1387.64 1317.98 1388.43 z"/>
<path transform="translate(0,0)" fill="url(#Gradient1)" d="M 107.25 1556.24 C 174.017 1621.22 248.286 1658.21 341.56 1668.41 C 368.196 1671.33 401.704 1670.87 428.699 1670.89 L 539.285 1670.96 C 556.08 1670.98 576.061 1670.5 592.651 1671.16 C 586.731 1673.51 549.723 1672.71 540.919 1672.83 L 447.193 1674.07 C 412.357 1674.39 377.429 1675.93 342.514 1675.01 C 337.934 1674.89 332.776 1671.09 329.486 1671.16 C 313.921 1671.47 302.124 1669.63 287.554 1664.31 C 233.716 1651.91 184.628 1626.77 141.268 1592.72 C 129.177 1583.22 116.345 1574.63 106.98 1562.13 C 105.396 1560.02 106.589 1558.19 107.25 1556.24 z"/>
</svg>