<?xml version="1.0" encoding="UTF-8" standalone="no"?>
<!-- Created with Inkscape (http://www.inkscape.org/) -->

<svg
   xmlns:dc="http://purl.org/dc/elements/1.1/"
   xmlns:cc="http://creativecommons.org/ns#"
   xmlns:rdf="http://www.w3.org/1999/02/22-rdf-syntax-ns#"
   xmlns:svg="http://www.w3.org/2000/svg"
   xmlns="http://www.w3.org/2000/svg"
   xmlns:sodipodi="http://sodipodi.sourceforge.net/DTD/sodipodi-0.dtd"
   xmlns:inkscape="http://www.inkscape.org/namespaces/inkscape"
   width="602mm"
   height="602mm"
   viewBox="0 0 602 602"
   version="1.1"
   id="svg8"
   inkscape:version="0.92.4 (5da689c313, 2019-01-14)"
   sodipodi:docname="88.svg">
  <defs
     id="defs2" />
  <sodipodi:namedview
     id="base"
     pagecolor="#ffffff"
     bordercolor="#666666"
     borderopacity="1.0"
     inkscape:pageopacity="0.0"
     inkscape:pageshadow="2"
     inkscape:zoom="0.24748737"
     inkscape:cx="1730.228"
     inkscape:cy="1122.1174"
     inkscape:document-units="mm"
     inkscape:current-layer="layer1"
     showgrid="false"
     inkscape:window-width="1920"
     inkscape:window-height="1057"
     inkscape:window-x="-8"
     inkscape:window-y="-8"
     inkscape:window-maximized="1" />
  <metadata
     id="metadata5">
    <rdf:RDF>
      <cc:Work
         rdf:about="">
        <dc:format>image/svg+xml</dc:format>
        <dc:type
           rdf:resource="http://purl.org/dc/dcmitype/StillImage" />
        <dc:title></dc:title>
      </cc:Work>
    </rdf:RDF>
  </metadata>
  <g
     inkscape:label="Layer 1"
     inkscape:groupmode="layer"
     id="layer1"
     transform="translate(0,305)">
    <circle
       style="opacity:1;fill:#ff3219;fill-opacity:1;fill-rule:nonzero;stroke:none;stroke-width:11.74168015;stroke-linecap:square;stroke-linejoin:round;stroke-miterlimit:4;stroke-dasharray:none;stroke-opacity:1"
       id="path10"
       cx="301"
       cy="-4"
       r="300" />
    <circle
       r="240"
       cy="-4"
       cx="301"
       id="circle817"
       style="opacity:1;fill:#ffffff;fill-opacity:1;fill-rule:nonzero;stroke:none;stroke-width:9.39334393;stroke-linecap:square;stroke-linejoin:round;stroke-miterlimit:4;stroke-dasharray:none;stroke-opacity:1" />
    <path
       inkscape:connector-curvature="0"
       id="path18"
       style="fill:#000000;fill-opacity:1;fill-rule:nonzero;stroke:none;stroke-width:0.21849173"
       d="m 437.49433,-36.011784 c -10.19048,0.0898 -19.92648,2.1194 -28.84092,5.89927 l -29.49639,-51.78251 5.46233,-15.5129 c 14.85738,-1.3394 20.19076,-14.925126 20.1012,-17.260806 0.0898,-2.27449 -2.62188,-2.18493 -2.62188,-2.18493 h -64.23658 c -1.32187,-0.0898 -6.0413,1.11872 -6.11778,6.11778 0.0768,5.09739 5.46232,5.89925 5.46232,5.89925 l 28.18541,6.336236 -6.99174,18.57179 H 222.27999 c 1.7086,-6.20734 2.84039,-10.05063 2.84039,-10.05063 0,0 1.07717,-3.84106 1.09247,-5.46227 -0.0124,-7.616636 -5.67427,-13.319216 -8.08421,-14.638856 -0.4546,-0.22297 -2.04577,-0.93516 -1.96643,-3.05889 -0.0793,-2.15874 1.16456,-3.95038 3.93285,-3.93286 h 28.40392 v -18.79029 h -35.83267 c 0,0 -18.66308,1.6518 -18.57179,20.75672 -0.091,11.27193 5.46908,13.8217 9.83213,16.386786 1.49101,0.94605 2.80805,4.60583 2.18493,6.55473 -0.3041,1.29567 -9.02308,34.00609 -16.16835,60.95919 -8.24047,-3.01956 -17.11144,-4.71719 -26.43756,-4.80681 -41.08993,0.0898 -74.4475,33.4466966 -74.50566,74.50572 0.0557,41.23678 33.41573,74.595294 74.50566,74.505744 41.20538,0.0898 74.56469,-33.268964 74.50573,-74.505744 0.0619,-24.92554 -12.2705,-47.0609931 -31.24437,-60.52224 0.8705,-3.07419 1.6977,-6.16144 2.62195,-9.17667 l 86.52272,60.30374 c -1.03351,3.03269 -1.54478,6.1986 -1.52948,9.39517 -0.0124,17.31978 13.95289,31.28865 31.24437,31.24431 3.0195,0.0434 5.99539,-0.40444 8.73966,-1.31098 l 4.5883,10.05064 h -7.8657 v 10.26907 h 8.95817 c 1.3721,2.13118 3.83673,3.59921 6.55473,3.49591 2.90158,0.10343 5.36837,-1.36473 6.77324,-3.49591 h 8.73966 v -10.26907 h -13.10946 l -6.5548,-13.76498 c 6.7995,-4.31301 11.7243,-11.17369 13.54654,-19.22731 l 7.21018,0.21863 c 3.49807,37.70428 35.56827,67.385114 74.28722,67.295554 41.17038,0.0898 74.52969,-33.268954 74.50566,-74.505734 0.0248,-41.0589734 -33.33528,-74.41611 -74.50566,-74.50573" />
    <path
       inkscape:connector-curvature="0"
       id="path20"
       style="fill:#ffffff;fill-opacity:1;fill-rule:nonzero;stroke:none;stroke-width:0.21849173"
       d="m 325.62659,19.048126 c 10.74101,-0.0248 19.49597,8.73316 19.44574,19.44581 0.0496,10.8896 -8.70473,19.64673 -19.44574,19.66426 -10.86124,-0.0186 -19.61843,-8.77466 -19.66426,-19.66426 0.0434,-10.71265 8.80302,-19.46984 19.66426,-19.44581" />
    <path
       inkscape:connector-curvature="0"
       id="path22"
       style="fill:#ffffff;fill-opacity:1;fill-rule:nonzero;stroke:none;stroke-width:0.21849173"
       d="m 326.71899,7.4680746 c -0.33878,-0.0743 -0.74501,-0.0855 -1.0924,0 -3.31456,-0.0855 -6.45211,0.41497 -9.39518,1.3109809 l -4.58831,-9.8321332 h 8.52116 V -11.103707 h -8.73966 c -1.43769,-2.243899 -3.90226,-3.710008 -6.77324,-3.714348 -2.75083,0.004 -5.21539,1.470449 -6.55473,3.714348 h -8.95817 v 10.0506293 h 13.32797 l 6.11778,13.3279737 c -0.66425,0.56174 -1.37433,1.06626 -1.96642,1.52947 l -92.2035,-64.23658 c 1.00873,-3.73188 1.97293,-7.33041 2.84039,-10.70609 H 351.62707 L 326.71899,7.4680746" />
    <path
       inkscape:connector-curvature="0"
       id="path24"
       style="fill:#ffffff;fill-opacity:1;fill-rule:nonzero;stroke:none;stroke-width:0.21849173"
       d="m 392.48505,-20.717334 -21.84918,-38.0176 -26.21905,72.3208 c 5.77472,4.50308 10.00914,10.91363 11.58011,18.35328 h 7.21018 c 2.02106,-21.52143 13.03744,-40.3663531 29.27794,-52.65648" />
    <path
       inkscape:connector-curvature="0"
       id="path26"
       style="fill:#ffffff;fill-opacity:1;fill-rule:nonzero;stroke:none;stroke-width:0.21849173"
       d="M 403.40958,-1.2715878 C 393.7326,6.9961346 386.91787,18.611176 385.2748,31.939146 h 37.36209 L 403.40958,-1.2715878" />
    <path
       inkscape:connector-curvature="0"
       id="path28"
       style="fill:#ffffff;fill-opacity:1;fill-rule:nonzero;stroke:none;stroke-width:0.21849173"
       d="m 419.7965,-10.666767 26.00048,45.227853 c 0,0 1.32411,2.04725 1.31097,4.3698 0.0124,6.5657 -6.7907,6.5657 -10.05063,6.55473 l -51.56401,0.21863 c 3.41718,25.58911 25.37779,45.49826 52.00102,45.44629 29.0834,0.0495 52.64335,-23.50668 52.65648,-52.65647 -0.0124,-28.97205 -23.57308,-52.529822 -52.65648,-52.438042 -6.27509,-0.0917 -12.10228,1.21045 -17.69783,3.277399" />
    <path
       inkscape:connector-curvature="0"
       id="path30"
       style="fill:#ffffff;fill-opacity:1;fill-rule:nonzero;stroke:none;stroke-width:0.21849173"
       d="m 200.64931,1.1317929 c -2.59809,9.5415931 -4.35456,16.0984931 -4.58836,17.0423731 -5.76185,21.32262 -27.72022,27.90795 -32.11827,27.96697 -4.91606,-0.0619 -7.84278,-3.2774 -7.8657,-7.8657 0.0248,-4.48568 3.68202,-5.80099 5.02532,-6.77324 16.65646,-13.07893 19.22724,-26.8745027 19.22724,-26.8745027 0,0 1.58324,-5.8140611 3.93285,-14.4204304 -6.38911,-2.7420989 -13.36816,-4.2431489 -20.75672,-4.1513589 -29.00301,-0.0917 -52.56165,23.465992 -52.65647,52.438032 0.0948,29.1498 23.65346,52.70844 52.65647,52.65648 29.1184,0.0496 52.67797,-23.50668 52.65654,-52.65648 0.0186,-14.53191 -5.94449,-27.75942 -15.5129,-37.3621431" />
    <rect
       style="opacity:1;fill:#ff3219;fill-opacity:1;fill-rule:nonzero;stroke:none;stroke-width:4.10579681;stroke-linecap:square;stroke-linejoin:round;stroke-miterlimit:4;stroke-dasharray:none;stroke-opacity:1"
       id="rect2848"
       width="50"
       height="580"
       x="208.15053"
       y="-99.585114"
       transform="rotate(-40)" />
  </g>
</svg>
