<?xml version="1.0" encoding="UTF-8" standalone="no"?>
<!-- Created with Inkscape (http://www.inkscape.org/) -->

<svg
   xmlns:dc="http://purl.org/dc/elements/1.1/"
   xmlns:cc="http://creativecommons.org/ns#"
   xmlns:rdf="http://www.w3.org/1999/02/22-rdf-syntax-ns#"
   xmlns:svg="http://www.w3.org/2000/svg"
   xmlns="http://www.w3.org/2000/svg"
   xmlns:sodipodi="http://sodipodi.sourceforge.net/DTD/sodipodi-0.dtd"
   xmlns:inkscape="http://www.inkscape.org/namespaces/inkscape"
   width="602mm"
   height="602mm"
   viewBox="0 0 602 602"
   version="1.1"
   id="svg8"
   inkscape:version="0.92.4 (5da689c313, 2019-01-14)"
   sodipodi:docname="88.svg">
  <defs
     id="defs2" />
  <sodipodi:namedview
     id="base"
     pagecolor="#ffffff"
     bordercolor="#666666"
     borderopacity="1.0"
     inkscape:pageopacity="0.0"
     inkscape:pageshadow="2"
     inkscape:zoom="0.24748737"
     inkscape:cx="1755.5724"
     inkscape:cy="890.94173"
     inkscape:document-units="mm"
     inkscape:current-layer="layer1"
     showgrid="false"
     inkscape:window-width="1920"
     inkscape:window-height="1057"
     inkscape:window-x="-8"
     inkscape:window-y="-8"
     inkscape:window-maximized="1" />
  <metadata
     id="metadata5">
    <rdf:RDF>
      <cc:Work
         rdf:about="">
        <dc:format>image/svg+xml</dc:format>
        <dc:type
           rdf:resource="http://purl.org/dc/dcmitype/StillImage" />
        <dc:title></dc:title>
      </cc:Work>
    </rdf:RDF>
  </metadata>
  <g
     inkscape:label="Layer 1"
     inkscape:groupmode="layer"
     id="layer1"
     transform="translate(0,305)">
    <circle
       style="opacity:1;fill:#ff3219;fill-opacity:1;fill-rule:nonzero;stroke:none;stroke-width:11.74168015;stroke-linecap:square;stroke-linejoin:round;stroke-miterlimit:4;stroke-dasharray:none;stroke-opacity:1"
       id="path10"
       cx="301"
       cy="-4"
       r="300" />
    <circle
       r="240"
       cy="-4"
       cx="301"
       id="circle817"
       style="opacity:1;fill:#ffffff;fill-opacity:1;fill-rule:nonzero;stroke:none;stroke-width:9.39334393;stroke-linecap:square;stroke-linejoin:round;stroke-miterlimit:4;stroke-dasharray:none;stroke-opacity:1" />
    <path
       id="path18"
       style="fill:#000000;fill-opacity:1;fill-rule:nonzero;stroke:none;stroke-width:0.21878722"
       d="m 415.27359,-137.18206 c 18.06539,7.66619 30.68286,25.61458 30.72641,46.56797 h -7.84503 c -0.0247,23.497036 -18.95448,42.574556 -42.27604,42.614096 -15.89707,-0.0374 -29.72614,-8.8567 -37.04599,-21.966031 h -73.43825 c 0,0 -20.40148,1.31574 -20.48426,-20.648065 0.0828,-14.68428 -6.5506,-27.77382 -16.9976,-36.46358 l -2.39706,3.95389 c 9.21792,7.81331 15.0036,19.46188 15.03628,32.50969 -0.0309,23.497036 -18.9588,42.574556 -42.27604,42.614096 -23.37598,-0.0374 -42.30235,-19.11706 -42.27598,-42.614096 -0.0247,-23.56956 18.9,-42.64701 42.27598,-42.61408 5.22566,-0.0311 10.25742,0.93356 14.81841,2.6359 l 2.39712,-3.95388 c -5.34117,-2.0516 -11.15737,-3.22456 -17.21553,-3.29486 -0.51456,0.0704 -0.99805,0.0791 -1.5254,0 v -17.13352 h 10.67796 c 0,0 19.68666,0.69633 30.72642,-18.45143 3.42562,-5.91544 18.08713,-29.65412 18.08713,-29.65412 0,0 0.96976,-1.6409 1.96126,-1.31799 1.11795,0.52739 0.98502,1.56842 0.87167,2.19662 -0.30701,0.648 -8.28084,37.56189 -8.28084,37.56189 -0.19829,1.21475 -0.98934,4.72268 1.74333,6.37011 2.6455,1.69799 5.33246,-0.53362 6.10171,-1.09825 l 12.20335,-9.66509 11.11382,-19.76942 c 0,0 1.22037,-2.52165 0,-2.41623 -2.41886,-0.10522 -10.24648,-0.5031 -10.24215,-9.22575 v -10.54366 h -3.70459 c 0.0185,-0.60399 -0.006,-1.10927 0,-1.53766 -0.006,-9.10931 7.2545,-16.42835 16.12593,-16.47449 9.03922,0.0436 16.30026,7.36518 16.34381,16.47449 -0.0432,3.57388 -1.23557,6.95006 -3.26879,9.6651 v 6.37011 h 3.26879 l 20.48425,9.00607 20.04846,21.74636 c 0,0 5.90119,4.38439 5.88377,16.25489 h 39.44312 c 0,0 9.0174,-0.59527 8.93457,12.30092"
       inkscape:connector-curvature="0" />
    <path
       id="path20"
       style="fill:#ffffff;fill-opacity:1;fill-rule:nonzero;stroke:none;stroke-width:0.21878722"
       d="m 236.79901,-107.96721 c 4.14267,4.4898 6.7206,10.59858 6.7555,17.35312 -0.0371,14.034115 -11.34917,25.441036 -25.2785,25.480576 -13.98832,-0.0374 -25.30395,-11.446461 -25.27844,-25.480576 -0.0247,-14.10658 11.29012,-25.51132 25.27844,-25.48056 2.031,-0.0312 4.03587,0.21731 5.88378,0.65896 l -5.01212,8.56673 c -0.28353,-0.004 -0.59053,-0.0125 -0.87166,0 -8.92351,-0.0125 -16.13353,7.25323 -16.12587,16.25487 -0.006,8.929195 7.20236,16.195555 16.12587,16.254895 8.86489,-0.0623 16.07362,-7.3257 16.12594,-16.254895 -0.0494,-3.31907 -1.01986,-6.37452 -2.61499,-9.00607 l 5.01205,-8.34705"
       inkscape:connector-curvature="0" />
    <path
       id="path22"
       style="fill:#ffffff;fill-opacity:1;fill-rule:nonzero;stroke:none;stroke-width:0.21878722"
       d="m 394.1356,-116.09465 c 0.52753,-0.0124 1.12011,-0.0312 1.74333,0 13.93581,-0.0312 25.25014,11.37398 25.27844,25.48056 -0.0309,14.034115 -11.34263,25.441036 -25.27844,25.480576 -13.98159,-0.0374 -25.29808,-11.446461 -25.27844,-25.480576 -0.0185,-8.27021 3.85716,-15.5915 9.8063,-20.20876 l 3.48665,9.22575 c -2.56922,2.94125 -4.14261,6.75896 -4.14039,10.98301 -0.002,8.929195 7.20873,16.195555 16.12588,16.254895 8.86927,-0.0623 16.08016,-7.3257 16.12593,-16.254895 -0.0432,-8.44157 -6.38283,-15.35202 -14.60047,-16.25487 l -3.26879,-9.22569"
       inkscape:connector-curvature="0" />
    <path
       id="path24"
       style="fill:#ffffff;fill-opacity:1;fill-rule:nonzero;stroke:none;stroke-width:0.21878722"
       d="m 354.47456,-99.18081 c 1.33149,-9.28066 6.90801,-16.88751 13.29301,-23.28402 0.74744,-0.79295 1.1484,-3.41571 -0.65374,-3.51453 -1.78261,0.099 -16.12593,0 -16.12593,0 v 27.01816 c 0,0 -0.10007,1.98796 1.5254,1.97694 1.53633,0.0125 1.85235,-1.73311 1.96126,-2.19655"
       inkscape:connector-curvature="0" />
    <path
       id="path26"
       style="fill:#ffffff;fill-opacity:1;fill-rule:nonzero;stroke:none;stroke-width:0.21878722"
       d="m 322.00487,-149.48298 c 0,0 -7.5988,-3.26199 -10.46008,-13.61899 l -33.99514,19.9891 33.55934,10.98301 10.89588,-17.35312"
       inkscape:connector-curvature="0" />
    <path
       style="fill:#000000;fill-opacity:1;fill-rule:nonzero;stroke:none;stroke-width:0.22086096"
       d="m 235.56492,-30.999057 c -8.40339,-0.066 -28.63128,4.23479 -32.66303,28.9785897 l -9.55391,59.2744203 c 0,0 -17.31704,1.05618 -17.33171,19.31924 v 53.127497 c 0,0 -0.8281,10.07597 9.33222,15.80627 V 186.999 c 0,0 6.27446,8.9847 19.77548,9.001 13.46725,-0.0187 18.66444,-9.22063 18.66444,-9.22063 v -37.97958 c 0,0 54.0088,2.84295 77.10152,2.85409 0.0353,-2e-5 0.0747,-4.9e-4 0.11007,-5.2e-4 0.0354,3e-5 0.0748,4.9e-4 0.11007,5.2e-4 23.09272,-0.0111 77.10153,-2.85409 77.10153,-2.85409 v 37.97958 c 0,0 5.19718,9.20195 18.66443,9.22063 13.50102,-0.0163 19.77548,-9.001 19.77548,-9.001 v -41.49204 c 10.16032,-5.7303 9.33222,-15.80627 9.33222,-15.80627 V 76.573193 c -0.0147,-18.26306 -17.3317,-19.31924 -17.3317,-19.31924 L 399.09811,-2.0204673 C 395.06636,-26.764267 374.83847,-31.065057 366.43509,-30.999057 H 301 Z"
       id="path28"
       inkscape:connector-curvature="0" />
    <path
       style="fill:#ffffff;fill-opacity:1;fill-rule:nonzero;stroke:none;stroke-width:0.22082441"
       d="m 224.88254,45.669426 c -0.47292,0.002 -0.91341,0.002 -1.31982,-0.001 -16.63208,0.0988 -13.7759,-15.362371 -13.7759,-15.362371 l 2.6665,-17.77669 c 3.05066,-15.042239 15.49565,-21.5428137 26.44077,-22.824482 1.88861,-0.127291 37.91709,-2.627947 41.3277,-2.633953 h 20.77858 20.77858 c 3.41061,0.006 39.43909,2.506662 41.32771,2.633953 10.94511,1.2816423 23.39011,7.782243 26.44076,22.824442 l 2.6665,17.77669 c 0,0 2.85618,15.461171 -13.7759,15.362371 -0.4064,0.003 -0.8469,0.003 -1.31982,0.001 -14.66051,-0.0729 -60.30029,-2.67707 -76.00259,-2.63447 -0.0362,-1e-4 -0.0786,5.9e-4 -0.11524,5.2e-4 -0.0366,7e-5 -0.079,-6.1e-4 -0.11524,-5.2e-4 -15.7023,-0.0425 -61.34207,2.56157 -76.00259,2.63447 z"
       id="path32"
       inkscape:connector-curvature="0" />
    <circle
       style="opacity:1;fill:#ffffff;fill-opacity:1;fill-rule:nonzero;stroke:none;stroke-width:85.43625641;stroke-linecap:square;stroke-linejoin:round;stroke-miterlimit:4;stroke-dasharray:none;stroke-opacity:1"
       id="path114"
       cx="207.80023"
       cy="86.870872"
       r="17.799999" />
    <circle
       r="17.799999"
       cy="86.870872"
       cx="394.19974"
       id="circle127"
       style="opacity:1;fill:#ffffff;fill-opacity:1;fill-rule:nonzero;stroke:none;stroke-width:85.43625641;stroke-linecap:square;stroke-linejoin:round;stroke-miterlimit:4;stroke-dasharray:none;stroke-opacity:1" />
    <path
       style="fill:#ffffff;fill-opacity:1;fill-rule:nonzero;stroke:none;stroke-width:0.22083588"
       d="M 299.25045,133.87083 C 288.19559,133.84873 244.33335,133.1867 237,132.33088 v -8.5602 h 128.00045 v 8.5602 c -7.33335,0.85582 -51.19559,1.51786 -62.25046,1.53995 z"
       id="path158"
       inkscape:connector-curvature="0"
       sodipodi:nodetypes="ccccccc" />
    <path
       sodipodi:nodetypes="ccccccc"
       inkscape:connector-curvature="0"
       id="path195"
       d="m 299.25045,84.670736 c -11.05486,0.0221 -54.9171,0.68413 -62.25045,1.53995 v 8.560197 h 128.00045 v -8.560197 c -7.33335,-0.85582 -51.19559,-1.51786 -62.25046,-1.53995 z"
       style="fill:#ffffff;fill-opacity:1;fill-rule:nonzero;stroke:none;stroke-width:0.22083588" />
    <rect
       style="opacity:1;fill:#ffffff;fill-opacity:1;fill-rule:nonzero;stroke:none;stroke-width:88.95569611;stroke-linecap:square;stroke-linejoin:round;stroke-miterlimit:4;stroke-dasharray:none;stroke-opacity:1"
       id="rect197"
       width="128"
       height="10.1"
       x="237"
       y="104.22089" />
    <rect
       style="opacity:1;fill:#ff3219;fill-opacity:1;fill-rule:nonzero;stroke:none;stroke-width:4.10579681;stroke-linecap:square;stroke-linejoin:round;stroke-miterlimit:4;stroke-dasharray:none;stroke-opacity:1"
       id="rect1037"
       width="50"
       height="580"
       x="208.15053"
       y="-99.585114"
       transform="rotate(-40)" />
  </g>
</svg>
