<?xml version="1.0" encoding="UTF-8" standalone="no"?>
<!-- Created with Inkscape (http://www.inkscape.org/) -->

<svg
   width="680.896mm"
   height="602mm"
   viewBox="0 0 680.896 602"
   version="1.1"
   id="svg16"
   inkscape:version="1.1 (c68e22c387, 2021-05-23)"
   sodipodi:docname="Bangladesh_road_sign_B25.svg"
   xmlns:inkscape="http://www.inkscape.org/namespaces/inkscape"
   xmlns:sodipodi="http://sodipodi.sourceforge.net/DTD/sodipodi-0.dtd"
   xmlns="http://www.w3.org/2000/svg"
   xmlns:svg="http://www.w3.org/2000/svg"
   xmlns:rdf="http://www.w3.org/1999/02/22-rdf-syntax-ns#"
   xmlns:cc="http://creativecommons.org/ns#"
   xmlns:dc="http://purl.org/dc/elements/1.1/">
  <defs
     id="defs10" />
  <sodipodi:namedview
     id="base"
     pagecolor="#ffffff"
     bordercolor="#666666"
     borderopacity="1.0"
     inkscape:pageopacity="0.0"
     inkscape:pageshadow="2"
     inkscape:zoom="0.24748737"
     inkscape:cx="1800.0919"
     inkscape:cy="1327.3405"
     inkscape:document-units="mm"
     inkscape:current-layer="layer1"
     showgrid="false"
     inkscape:window-width="1366"
     inkscape:window-height="715"
     inkscape:window-x="-8"
     inkscape:window-y="-8"
     inkscape:window-maximized="1"
     inkscape:pagecheckerboard="0" />
  <metadata
     id="metadata13">
    <rdf:RDF>
      <cc:Work
         rdf:about="">
        <dc:format>image/svg+xml</dc:format>
        <dc:type
           rdf:resource="http://purl.org/dc/dcmitype/StillImage" />
      </cc:Work>
    </rdf:RDF>
  </metadata>
  <g
     inkscape:label="Layer 1"
     inkscape:groupmode="layer"
     id="layer1"
     transform="translate(0,305)">
    <path
       style="opacity:1;fill:none;fill-opacity:1;fill-rule:nonzero;stroke:#ff3219;stroke-width:90.00010681;stroke-linecap:square;stroke-linejoin:round;stroke-miterlimit:4;stroke-dasharray:none;stroke-opacity:1"
       d="M 45.99676,250.99994 340.44792,-259.00448 634.8991,250.99995 Z"
       id="rect1389"
       inkscape:connector-curvature="0"
       sodipodi:nodetypes="cccc" />
    <path
       style="opacity:1;fill:#ffffff;fill-opacity:1;fill-rule:nonzero;stroke:none;stroke-width:90;stroke-linecap:square;stroke-linejoin:round;stroke-miterlimit:4;stroke-dasharray:none;stroke-opacity:1"
       d="M 71.977985,236 340.44764,-229.0041 608.91817,235.99951 Z"
       id="rect1403"
       inkscape:connector-curvature="0"
       sodipodi:nodetypes="cccc" />
    <path
       inkscape:connector-curvature="0"
       id="path20"
       style="fill:#ffffff;fill-opacity:1;fill-rule:nonzero;stroke:none;stroke-width:0.21647464"
       d="m 367.84926,31.629685 -20.11142,9.53471 c 0,0 -7.68555,1.77694 -4.75752,12.56849 0.58848,2.42271 2.20146,8.24102 2.59506,10.18485 0.57315,1.93511 3.15508,7.91379 4.10872,9.318 0.98178,1.50604 4.04608,7.48478 3.46007,11.91842 -0.38252,4.29406 -4.0915,11.40545 -8.86631,13.001911 -4.90244,1.636281 -28.77224,9.231764 -30.27519,9.534714 -1.4013,0.34338 -11.39858,3.73718 -17.08382,-2.3837 -5.60522,-6.161613 -17.30013,-20.586355 -17.30013,-20.586355 l -0.21639,8.45128 c 0,0 0.46036,10.822085 2.81132,18.852705 2.48686,8.13118 13.37728,53.25794 15.57008,74.97759 0.62495,6.52722 3.85139,13.15339 6.27125,13.21864 2.41772,-0.0652 3.1443,-2.40903 2.59499,-4.11729 -0.57928,-1.52361 -4.29041,-11.54415 -4.54124,-12.56849 -0.39354,-1.0768 -2.00683,-4.63191 2.595,-7.58442 4.59102,-3.02796 7.89752,-5.53255 12.97508,-14.51878 5.24627,-8.79145 14.27691,-24.79159 41.95275,-38.78903 0,0 -4.45048,-0.70924 -10.81258,-6.9343 0,0 20.23247,-33.855645 19.03015,-84.078945" />
    <path
       class="st2"
       d="m 169.87793,155.13772 18.5228,-10.10727 18.3513,-10.96382 3.43017,-2.56968 2.22961,-3.7688 13.20606,-31.349752 4.2877,-27.923536 -12.34854,7.70898 -1.88657,1.541753 -6.68883,16.445763 -1.20056,5.310619 -0.3429,7.880303 -1.02905,2.91225 -1.88658,2.22704 -2.74416,1.37044 -2.91562,0.17158 -0.51468,-0.17158 -3.77321,-0.85654 -3.25865,-2.22704 -2.05809,-3.2549 -0.68601,-3.7688 v -0.51409 l 2.05809,-7.023695 5.48827,-21.927696 0.85752,-2.912258 3.94466,-8.051558 0.68601,-1.027859 11.83405,-10.278598 3.94466,-2.740937 12.69157,-7.708981 7.54629,-2.740937 6.86034,-0.514092 10.29046,0.342512 1.71505,-4.625402 -4.63068,-5.481875 -2.74415,-6.681121 -0.51468,-7.023698 1.20056,-6.6810559 3.08713,-5.9959017 4.80218,-4.796658 6.00276,-2.9122578 6.68883,-1.0278604 h 0.85752 l 6.68876,1.0278604 6.00275,2.9122578 4.80226,4.6254018 3.08713,5.9958373 1.20056,6.6810565 v 2.05572 l -1.02904,7.366339 -3.25865,6.681121 -5.14523,5.310554 -5.48826,3.08358 -1.88658,5.310619 7.71781,2.912258 6.68882,4.968043 3.60163,4.454015 9.08995,20.214617 3.94467,11.649031 17.83673,-4.796649 -4.63034,-19.186762 -1.71506,-19.700656 v -2.569616 l 1.2005,-5.995839 3.08713,-5.139298 0.17178,-0.342512 15.6072,-13.704819 17.15073,-11.4777777 1.37207,-0.6852182 7.0318,-2.3983612 4.45921,-0.5140919 9.94742,-0.1715796 0.51469,-5.4819397 -6.86035,-3.5974769 -4.97371,-3.5975418 -1.02904,-1.02786 -0.17178,-5.310555 1.37208,-10.621239 0.68601,-2.740937 3.08714,-7.023763 3.7732,-4.625336 6.00276,-4.111439 7.0318,-2.055719 3.77313,-0.17158 7.20332,1.02786 6.51731,3.2549 4.97371,4.796657 3.25865,6.167159 1.37208,6.852376 v 2.569682 l -1.02905,6.852377 -3.08713,6.338479 -4.63074,5.3106192 -3.94466,2.7409381 -0.51468,5.3106191 10.97646,3.0835794 4.63066,2.2270405 6.34579,5.1392987 2.57264,3.426221 5.4882,10.963815 6.51731,13.704819 10.29045,9.250737 1.88657,1.370437 13.37759,9.079417 4.45921,1.541822 1.20057,0.17158 5.65971,0.856539 2.57264,1.027859 2.22961,1.541757 1.37202,2.398362 0.17177,2.740938 -0.3429,1.027859 -1.54353,3.768867 -2.91563,2.912253 -3.7732,1.541763 -1.71505,0.171571 -4.11618,-1.027857 -1.71506,-0.85654 -5.14522,-3.254896 -17.66529,-7.023699 -10.29044,-5.995838 -5.48827,-4.796658 -9.94741,-15.931858 -2.40112,-4.625336 0.51468,13.362176 0.85753,5.139299 6.17426,21.585057 8.57541,20.728453 10.4619,18.67279 -8.74685,4.11144 3.60162,4.79672 1.37209,3.42616 5.31674,27.06699 6.00275,26.03914 0.17177,0.68522 3.08714,6.33848 0.51468,0.51409 3.94473,2.56961 1.02904,0.34252 10.11894,0.85654 10.46197,-0.17158 2.7441,0.68528 0.51468,0.34251 1.20056,1.71308 0.3429,2.05572 -0.51468,1.8844 -1.88657,2.05571 -1.02904,0.68529 -3.60162,1.8844 -21.95299,7.70892 -4.80219,1.3705 -4.80225,0.85654 -2.7441,-0.17158 -1.88657,-0.85654 -2.57265,-3.42623 -0.85752,-2.91225 -1.02904,-6.68105 -1.71506,-6.50981 -9.60444,-22.61291 -5.83123,-16.44576 -0.85753,-3.59748 -1.5436,-15.58921 -1.02905,-2.741 -2.05809,-2.05572 -4.80218,-4.62534 -15.77871,1.71307 -14.7496,-0.85654 -1.54361,4.28277 -5.14521,5.65319 -1.54354,1.19919 -7.71787,5.65326 -18.35129,13.01953 -9.77596,8.56552 -6.00275,7.36634 -2.7441,6.68105 -0.68601,7.19502 2.40106,15.07526 0.85752,5.1393 -0.51468,1.71314 -1.37208,1.37043 -0.51469,0.34252 -2.05809,0.68528 -2.05809,-0.34251 -1.02903,-0.68529 -3.77322,-3.76879 -28.47022,9.59337 -2.91562,0.34252 -2.91561,-0.68529 -1.5436,-1.02785 -2.22961,-5.31062 -0.34291,-1.8844 -9.2614,-44.36923 -7.71787,-16.10317 -0.17178,-0.34252 -13.37758,-23.46945 -14.57809,22.09895 -6.00281,6.16716 -2.57258,1.88446 -20.40939,9.422 -20.58089,9.07948 -6.17427,3.08357 -6.00275,21.75631 -0.85759,1.88447 -1.54354,1.19911 -1.88657,0.5141 -2.2296,-0.17158 -1.71506,-1.02786 -1.20057,-1.71308 -2.40113,-8.22288 -2.57257,-18.33015 -0.17178,-5.31062 0.51468,-2.74093 1.54361,-2.39837 1.02903,-0.85654 z m 169.27792,-111.180171 22.98197,-13.533498 -2.22955,25.011276 -4.80225,24.668634 -7.20332,23.983409 -4.9737,12.84822 5.14522,3.08358 0.85753,0.34251 6.68882,2.22704 -0.3429,1.3705 -14.0636,8.73678 -5.8313,4.6254 -9.2614,10.7925 -0.85753,1.19917 -10.11893,12.163 -8.40388,6.5098 -1.37201,0.68522 -2.40113,2.05572 -1.02904,1.71314 -0.34291,4.45402 1.20056,4.28276 0.17178,0.51409 6.86028,14.39004 -12.69152,-0.68522 -7.88938,-49.67991 -7.0318,-17.98751 -8.06084,-17.47362 9.08989,-28.951392 7.71787,17.81619 1.20049,2.398362 2.40113,3.59754 3.43017,2.56962 8.74685,-0.17158 3.43018,-0.68522 11.83397,-3.42622 16.46472,-6.681059 0.8576,-0.342507 1.71506,-1.027865 1.88656,-1.713144 1.02905,-2.398293 0.17178,-1.027856 -0.34291,-3.08358 -0.34291,-0.85654 -2.40112,-4.625405 -1.02905,-2.912253 v -1.370437 l -0.85753,-33.405478"
       id="path122"
       style="clip-rule:evenodd;fill-rule:evenodd;stroke-width:1.71409" />
  </g>
</svg>
